<?xml version="1.0" encoding="utf-8"?>
<!-- Generator: Adobe Illustrator 16.0.0, SVG Export Plug-In . SVG Version: 6.00 Build 0)  -->
<!DOCTYPE svg PUBLIC "-//W3C//DTD SVG 1.1//EN" "http://www.w3.org/Graphics/SVG/1.1/DTD/svg11.dtd">
<svg version="1.1" xmlns="http://www.w3.org/2000/svg" xmlns:xlink="http://www.w3.org/1999/xlink" x="0px" y="0px"
	 width="294.479px" height="234.568px" viewBox="0 0 294.479 234.568" enable-background="new 0 0 294.479 234.568"
	 xml:space="preserve">
<g id="Layer_2">
</g>
<g id="Layer_1">
	<g>
		<rect x="79.958" y="181.317" fill="#FFFFFF" width="1.471" height="1.394"/>
		<g>
			<rect x="21.796" y="196.577" fill="#FFFFFF" width="5.069" height="37.991"/>
			<rect x="14.722" y="196.577" fill="#FFFFFF" width="2.028" height="37.991"/>
			<rect x="28.895" y="196.577" fill="#FFFFFF" width="2.027" height="37.991"/>
			<rect x="10.666" y="196.577" fill="#FFFFFF" width="2.028" height="37.991"/>
			<rect x="3.566" y="196.577" fill="#FFFFFF" width="5.071" height="37.991"/>
			<rect x="39.355" y="196.577" fill="#FFFFFF" width="2.028" height="37.991"/>
			<rect x="43.412" y="196.577" fill="#FFFFFF" width="5.169" height="37.991"/>
			<rect x="32.258" y="196.577" fill="#FFFFFF" width="5.07" height="37.991"/>
			<rect x="57.684" y="196.577" fill="#FFFFFF" width="1.93" height="37.991"/>
			<rect x="53.627" y="196.577" fill="#FFFFFF" width="2.028" height="37.991"/>
			<rect x="60.947" y="196.577" fill="#FFFFFF" width="2.028" height="37.991"/>
			<rect x="72.102" y="196.577" fill="#FFFFFF" width="2.029" height="37.991"/>
			<rect x="76.159" y="196.577" fill="#FFFFFF" width="2.028" height="37.991"/>
			<rect x="83.233" y="196.577" fill="#FFFFFF" width="5.069" height="37.991"/>
			<rect x="65.004" y="196.577" fill="#FFFFFF" width="5.07" height="37.991"/>
			<rect x="100.793" y="196.577" fill="#FFFFFF" width="2.027" height="37.991"/>
			<rect x="104.849" y="196.577" fill="#FFFFFF" width="2.028" height="37.991"/>
			<rect x="111.924" y="196.577" fill="#FFFFFF" width="5.068" height="37.991"/>
			<rect x="89.638" y="196.577" fill="#FFFFFF" width="2.028" height="37.991"/>
			<rect x="93.693" y="196.577" fill="#FFFFFF" width="5.07" height="37.991"/>
			<rect x="143.754" y="196.577" fill="#FFFFFF" width="1.93" height="37.991"/>
			<rect x="129.482" y="196.577" fill="#FFFFFF" width="5.17" height="37.991"/>
			<rect x="118.328" y="196.577" fill="#FFFFFF" width="5.07" height="37.991"/>
			<rect x="125.426" y="196.577" fill="#FFFFFF" width="2.027" height="37.991"/>
			<rect x="136.68" y="196.577" fill="#FFFFFF" width="2.029" height="37.991"/>
			<rect x="169.303" y="196.577" fill="#FFFFFF" width="5.07" height="37.991"/>
			<rect x="165.246" y="196.577" fill="#FFFFFF" width="2.029" height="37.991"/>
			<rect x="158.172" y="196.577" fill="#FFFFFF" width="2.029" height="37.991"/>
			<rect x="154.115" y="196.577" fill="#FFFFFF" width="2.029" height="37.991"/>
			<rect x="147.018" y="196.577" fill="#FFFFFF" width="5.07" height="37.991"/>
			<rect x="179.764" y="196.577" fill="#FFFFFF" width="5.07" height="37.991"/>
			<rect x="175.709" y="196.577" fill="#FFFFFF" width="2.027" height="37.991"/>
			<rect x="201.035" y="196.577" fill="#FFFFFF" width="2.029" height="37.991"/>
			<rect x="186.863" y="196.577" fill="#FFFFFF" width="2.027" height="37.991"/>
			<rect x="190.92" y="196.577" fill="#FFFFFF" width="5.045" height="37.991"/>
			<rect x="234.475" y="196.577" fill="#FFFFFF" width="2.029" height="37.991"/>
			<rect x="242.59" y="196.577" fill="#FFFFFF" width="5.07" height="37.991"/>
			<rect x="252.705" y="196.577" fill="#FFFFFF" width="2.029" height="37.991"/>
			<rect x="238.533" y="196.577" fill="#FFFFFF" width="2.027" height="37.991"/>
			<rect x="256.762" y="196.577" fill="#FFFFFF" width="5.072" height="37.991"/>
			<rect x="271.279" y="196.577" fill="#FFFFFF" width="5.07" height="37.991"/>
			<rect x="267.223" y="196.577" fill="#FFFFFF" width="2.027" height="37.991"/>
			<rect x="281.396" y="196.577" fill="#FFFFFF" width="2.027" height="37.991"/>
			<rect x="285.451" y="196.577" fill="#FFFFFF" width="5.072" height="37.991"/>
			<rect x="263.166" y="196.577" fill="#FFFFFF" width="2.029" height="37.991"/>
			<path fill="#FFFFFF" d="M7.763,186.597c-1.085-0.245-2.169-0.349-2.169-1.071c0-0.581,0.787-0.684,1.214-0.684
				c0.646,0,1.226,0.193,1.355,0.891h1.536c-0.181-1.485-1.42-2.053-2.789-2.053c-1.213,0-2.787,0.451-2.787,1.91
				c0,1.355,1.059,1.743,2.143,1.976c1.071,0.245,2.143,0.335,2.182,1.11c0.039,0.761-0.93,0.877-1.484,0.877
				c-0.788,0-1.434-0.31-1.511-1.161H3.98c0.025,1.574,1.277,2.323,2.956,2.323c1.382,0,2.981-0.581,2.981-2.169
				C9.918,187.229,8.834,186.842,7.763,186.597z"/>
			<polygon fill="#FFFFFF" points="15.177,183.86 13.551,188.985 13.524,188.985 11.834,183.86 10.232,183.86 12.66,190.534 
				14.313,190.534 16.7,183.86 			"/>
			<path fill="#FFFFFF" d="M23.302,188.443h-1.394c-0.259,0.735-0.775,1.109-1.627,1.109c-1.227,0-1.795-0.929-1.795-1.975h4.906
				c0.245-2.001-1.046-3.898-3.15-3.898c-1.988,0-3.227,1.626-3.227,3.524c0,2.052,1.174,3.511,3.266,3.511
				C21.74,190.715,22.979,189.901,23.302,188.443z M20.242,184.842c0.994,0,1.627,0.839,1.679,1.768h-3.435
				C18.525,185.616,19.223,184.842,20.242,184.842z"/>
			<path fill="#FFFFFF" d="M28.915,190.534h1.472v-4.583c0-1.497-0.916-2.271-2.362-2.271c-0.878,0-1.64,0.451-2.079,1.188
				l-0.025-0.025v-0.981h-1.395v6.674h1.473v-3.938c0-0.98,0.633-1.755,1.613-1.755c0.865,0,1.277,0.451,1.304,1.497V190.534z"/>
			<path fill="#FFFFFF" d="M35.339,186.597c-1.085-0.245-2.169-0.349-2.169-1.071c0-0.581,0.787-0.684,1.214-0.684
				c0.646,0,1.226,0.193,1.355,0.891h1.536c-0.181-1.485-1.42-2.053-2.789-2.053c-1.213,0-2.787,0.451-2.787,1.91
				c0,1.355,1.059,1.743,2.143,1.976c1.071,0.245,2.143,0.335,2.182,1.11c0.039,0.761-0.93,0.877-1.484,0.877
				c-0.788,0-1.434-0.31-1.511-1.161h-1.472c0.025,1.574,1.277,2.323,2.956,2.323c1.382,0,2.981-0.581,2.981-2.169
				C37.494,187.229,36.41,186.842,35.339,186.597z"/>
			<polygon fill="#FFFFFF" points="42.055,186.313 44.611,183.86 42.805,183.86 40.145,186.559 40.145,181.317 38.674,181.317 
				38.674,190.534 40.145,190.534 40.145,188.146 41.022,187.294 43.063,190.534 44.856,190.534 			"/>
			<path fill="#FFFFFF" d="M51.128,189.05v-3.434c0-1.407-1.368-1.937-2.673-1.937c-1.471,0-2.93,0.503-3.033,2.22h1.472
				c0.064-0.723,0.646-1.058,1.472-1.058c0.594,0,1.381,0.142,1.381,0.903c0,0.864-0.941,0.749-2,0.942
				c-1.24,0.142-2.569,0.413-2.569,2.078c0,1.304,1.085,1.949,2.284,1.949c0.788,0,1.73-0.245,2.312-0.813
				c0.116,0.607,0.542,0.813,1.136,0.813c0.246,0,0.71-0.09,0.93-0.168v-1.02c-0.155,0.025-0.271,0.025-0.361,0.025
				C51.205,189.553,51.128,189.411,51.128,189.05z M49.656,188.288c0,0.93-1.007,1.265-1.652,1.265
				c-0.517,0-1.355-0.193-1.355-0.852c0-0.774,0.568-1.007,1.201-1.11c0.645-0.116,1.354-0.104,1.807-0.4V188.288z"/>
			<rect x="53.023" y="188.791" fill="#FFFFFF" width="1.795" height="1.743"/>
			<path fill="#FFFFFF" d="M59.025,190.896l2.594-7.035h-1.535l-1.691,4.982h-0.025l-1.743-4.982H55.01l2.531,6.648l-0.168,0.516
				c-0.182,0.568-0.349,0.93-1.033,0.93c-0.232,0-0.465-0.052-0.697-0.09v1.239c0.336,0.051,0.672,0.077,1.02,0.077
				C58.199,193.181,58.547,192.096,59.025,190.896z"/>
			<rect x="62.502" y="181.317" fill="#FFFFFF" width="1.472" height="9.217"/>
			<path fill="#FFFFFF" d="M68.44,183.68c-1.988,0-3.228,1.626-3.228,3.524c0,2.052,1.175,3.511,3.266,3.511
				c1.459,0,2.698-0.813,3.021-2.271h-1.395c-0.258,0.735-0.774,1.109-1.627,1.109c-1.227,0-1.794-0.929-1.794-1.975h4.905
				C71.836,185.577,70.545,183.68,68.44,183.68z M66.685,186.609c0.039-0.993,0.735-1.768,1.756-1.768
				c0.993,0,1.626,0.839,1.679,1.768H66.685z"/>
			<rect x="72.694" y="188.791" fill="#FFFFFF" width="1.794" height="1.743"/>
			<path fill="#FFFFFF" d="M76.199,183.305v0.556h-1.098v1.097h1.098v5.577h1.471v-5.577h1.252v-1.097H77.67v-0.685
				c0-0.555,0.323-0.697,0.724-0.697c0.297,0,0.49,0.026,0.685,0.078v-1.149c-0.232-0.064-0.568-0.09-1.033-0.09
				C77.09,181.317,76.199,181.602,76.199,183.305z"/>
			<rect x="79.865" y="183.86" fill="#FFFFFF" width="1.471" height="6.674"/>
			<polygon fill="#FFFFFF" points="113.292,185.448 110.852,181.317 108.98,181.317 112.439,186.92 112.439,190.534 
				114.053,190.534 114.053,186.92 117.5,181.317 115.693,181.317 			"/>
			<rect x="118.334" y="181.317" fill="#FFFFFF" width="1.471" height="9.217"/>
			<path fill="#FFFFFF" d="M127.331,188.443h-1.394c-0.259,0.735-0.775,1.109-1.627,1.109c-1.227,0-1.795-0.929-1.795-1.975h4.906
				c0.245-2.001-1.046-3.898-3.15-3.898c-1.988,0-3.227,1.626-3.227,3.524c0,2.052,1.174,3.511,3.266,3.511
				C125.77,190.715,127.008,189.901,127.331,188.443z M124.271,184.842c0.994,0,1.627,0.839,1.679,1.768h-3.435
				C122.555,185.616,123.252,184.842,124.271,184.842z"/>
			<polygon fill="#FFFFFF" points="138.699,182.711 138.699,181.317 132.335,181.317 132.335,190.534 133.949,190.534 
				133.949,186.442 138.118,186.442 138.118,185.125 133.949,185.125 133.949,182.711 			"/>
			<path fill="#FFFFFF" d="M145.523,188.443h-1.395c-0.258,0.735-0.774,1.109-1.627,1.109c-1.227,0-1.794-0.929-1.794-1.975h4.905
				c0.246-2.001-1.045-3.898-3.149-3.898c-1.988,0-3.228,1.626-3.228,3.524c0,2.052,1.175,3.511,3.266,3.511
				C143.961,190.715,145.2,189.901,145.523,188.443z M142.464,184.842c0.993,0,1.626,0.839,1.679,1.768h-3.435
				C140.747,185.616,141.443,184.842,142.464,184.842z"/>
			<path fill="#FFFFFF" d="M154.196,183.68c-0.968,0-1.601,0.426-2.091,1.11c-0.297-0.762-1.059-1.11-1.873-1.11
				c-1.058,0-1.613,0.451-2.052,1.11h-0.039v-0.93h-1.394v6.674h1.471v-3.963c0-1.11,0.697-1.729,1.459-1.729
				c0.891,0,1.175,0.49,1.175,1.406v4.286h1.472v-3.911c0-1.123,0.426-1.781,1.42-1.781c1.148,0,1.214,0.735,1.214,1.794v3.898
				h1.472v-4.608C156.43,184.299,155.604,183.68,154.196,183.68z"/>
			<path fill="#FFFFFF" d="M165.949,181.317h-1.717l-3.537,9.217h1.665l0.865-2.439h3.679l0.865,2.439h1.729L165.949,181.317z
				 M163.664,186.868l1.395-3.963h0.039l1.381,3.963H163.664z"/>
			<path fill="#FFFFFF" d="M170.301,183.86v6.674h1.472v-3.176c0-1.472,0.8-2.285,1.808-2.285c0.206,0,0.426,0.039,0.633,0.065
				v-1.42c-0.13-0.014-0.221-0.039-0.556-0.039c-0.903,0-1.781,0.762-1.949,1.472h-0.026v-1.291H170.301z"/>
			<path fill="#FFFFFF" d="M180.859,188.443h-1.395c-0.258,0.735-0.774,1.109-1.627,1.109c-1.227,0-1.794-0.929-1.794-1.975h4.905
				c0.246-2.001-1.045-3.898-3.149-3.898c-1.988,0-3.228,1.626-3.228,3.524c0,2.052,1.175,3.511,3.266,3.511
				C179.297,190.715,180.536,189.901,180.859,188.443z M177.8,184.842c0.993,0,1.626,0.839,1.679,1.768h-3.435
				C176.083,185.616,176.779,184.842,177.8,184.842z"/>
			<path fill="#FFFFFF" d="M187.944,190.534v-4.583c0-1.497-0.917-2.271-2.362-2.271c-0.878,0-1.64,0.451-2.078,1.188l-0.026-0.025
				v-0.981h-1.394v6.674h1.471v-3.938c0-0.98,0.633-1.755,1.614-1.755c0.864,0,1.278,0.451,1.304,1.497v4.195H187.944z"/>
			<path fill="#FFFFFF" d="M193.71,189.901c0.116,0.607,0.542,0.813,1.136,0.813c0.246,0,0.71-0.09,0.93-0.168v-1.02
				c-0.155,0.025-0.271,0.025-0.361,0.025c-0.271,0-0.349-0.142-0.349-0.503v-3.434c0-1.407-1.368-1.937-2.673-1.937
				c-1.471,0-2.93,0.503-3.033,2.22h1.472c0.064-0.723,0.646-1.058,1.472-1.058c0.594,0,1.381,0.142,1.381,0.903
				c0,0.864-0.941,0.749-2,0.942c-1.24,0.142-2.569,0.413-2.569,2.078c0,1.304,1.085,1.949,2.284,1.949
				C192.187,190.715,193.129,190.47,193.71,189.901z M190.586,188.701c0-0.774,0.568-1.007,1.201-1.11
				c0.645-0.116,1.354-0.104,1.807-0.4v1.098c0,0.93-1.007,1.265-1.652,1.265C191.425,189.553,190.586,189.359,190.586,188.701z"/>
			<path fill="#FFFFFF" d="M201.107,190.534h1.472v-4.583c0-1.497-0.917-2.271-2.362-2.271c-0.878,0-1.64,0.451-2.078,1.188
				l-0.026-0.025v-0.981h-1.394v6.674h1.471v-3.938c0-0.98,0.633-1.755,1.614-1.755c0.864,0,1.278,0.451,1.304,1.497V190.534z"/>
			<path fill="#FFFFFF" d="M239.352,182.828c-2.27,0-2.733,2.315-2.733,4.11c0,1.796,0.464,4.11,2.733,4.11s2.732-2.314,2.732-4.11
				C242.084,185.144,241.621,182.828,239.352,182.828z M239.352,189.976c-1.13,0-1.445-1.389-1.445-3.037s0.315-3.037,1.445-3.037
				c1.129,0,1.445,1.389,1.445,3.037S240.48,189.976,239.352,189.976z"/>
			<path fill="#FFFFFF" d="M242.69,184.139h4.099c-1.625,1.829-2.879,4.257-3.049,6.752h1.412c0.203-2.856,1.299-4.969,2.947-6.831
				v-1.073h-5.409V184.139z"/>
			<rect x="248.182" y="189.366" fill="#FFFFFF" width="1.57" height="1.524"/>
			<path fill="#FFFFFF" d="M253.602,182.828c-2.27,0-2.732,2.315-2.732,4.11c0,1.796,0.463,4.11,2.732,4.11s2.732-2.314,2.732-4.11
				C256.334,185.144,255.871,182.828,253.602,182.828z M253.602,189.976c-1.129,0-1.445-1.389-1.445-3.037s0.316-3.037,1.445-3.037
				s1.445,1.389,1.445,3.037S254.73,189.976,253.602,189.976z"/>
			<path fill="#FFFFFF" d="M261.35,186.634v-0.022c0.711-0.271,1.117-0.858,1.117-1.626c0-1.344-0.893-2.157-2.461-2.157
				c-1.57,0-2.462,0.813-2.462,2.157c0,0.768,0.406,1.354,1.118,1.626v0.022c-0.881,0.226-1.445,0.938-1.445,1.931
				c0,1.547,1.186,2.484,2.789,2.484c1.603,0,2.789-0.938,2.789-2.484C262.795,187.571,262.229,186.859,261.35,186.634z
				 M260.006,183.845c0.688,0,1.241,0.429,1.241,1.208c0,0.745-0.53,1.163-1.241,1.163c-0.712,0-1.242-0.418-1.242-1.163
				C258.764,184.273,259.316,183.845,260.006,183.845z M260.006,190.032c-0.859,0-1.502-0.542-1.502-1.468
				c0-0.869,0.643-1.389,1.502-1.389c0.857,0,1.501,0.52,1.501,1.389C261.507,189.49,260.863,190.032,260.006,190.032z"/>
			<rect x="264.027" y="189.366" fill="#FFFFFF" width="1.568" height="1.524"/>
			<path fill="#FFFFFF" d="M268.734,187.898c-1.061,0.711-1.727,1.693-1.738,2.992h5.397v-1.151h-3.851
				c0.226-0.7,1.186-1.186,2.1-1.818c0.904-0.632,1.762-1.411,1.762-2.665c0-1.016-0.609-2.428-2.54-2.428
				c-1.762,0-2.722,1.299-2.722,3.049h1.287c0.034-1.106,0.339-1.976,1.355-1.976c1.106,0,1.344,0.835,1.332,1.4
				C271.095,186.532,269.763,187.153,268.734,187.898z"/>
			<path fill="#FFFFFF" d="M276.031,182.828c-2.27,0-2.732,2.315-2.732,4.11c0,1.796,0.463,4.11,2.732,4.11s2.732-2.314,2.732-4.11
				C278.764,185.144,278.301,182.828,276.031,182.828z M276.031,189.976c-1.129,0-1.445-1.389-1.445-3.037s0.316-3.037,1.445-3.037
				s1.445,1.389,1.445,3.037S277.16,189.976,276.031,189.976z"/>
			<path fill="#FFFFFF" d="M283.012,190.891v-7.904h-1.051c-0.191,0.949-1.219,1.321-2.303,1.311v1.016h1.941v5.578H283.012z"/>
			<path fill="#FFFFFF" d="M288.057,185.572c-0.531,0-1.106,0.215-1.457,0.599l-0.022-0.022l0.407-2.01h3.127v-1.152h-4.088
				l-0.846,4.325h1.287c0.203-0.554,0.733-0.723,1.275-0.723c1.039,0,1.502,0.778,1.502,1.648c0,0.96-0.373,1.738-1.468,1.738
				c-0.836,0-1.378-0.485-1.456-1.332h-1.288c0.057,1.581,1.242,2.405,2.767,2.405c1.942,0,2.732-1.569,2.732-2.834
				C290.529,186.701,289.626,185.572,288.057,185.572z"/>
		</g>
		<g>
			<g>
				<polygon fill="#FFFFFF" points="21.16,62.24 21.16,55.866 2.039,55.866 2.039,100.481 21.16,100.481 21.16,94.107 9.051,94.107 
					9.051,81.042 18.674,81.042 18.674,74.668 9.051,74.668 9.051,62.24 				"/>
				<polygon fill="#FFFFFF" points="49.804,100.481 49.804,55.866 43.558,55.866 43.558,82.571 36.355,55.866 27.561,55.866 
					27.561,100.481 33.869,100.481 33.869,68.167 42.602,100.481 				"/>
				<polygon fill="#FFFFFF" points="63.788,86.778 65.955,82.699 72.775,100.481 79.977,100.481 70.225,75.752 79.977,55.866 
					72.966,55.866 63.788,75.306 63.788,55.866 56.777,55.866 56.777,100.481 63.788,100.481 				"/>
				<polygon fill="#FFFFFF" points="105.007,62.24 105.007,55.866 85.886,55.866 85.886,100.481 105.007,100.481 105.007,94.107 
					92.896,94.107 92.896,81.042 102.521,81.042 102.521,74.668 92.896,74.668 92.896,62.24 				"/>
				<polygon fill="#FFFFFF" points="129.986,94.107 118.449,94.107 118.449,55.866 111.438,55.866 111.438,100.481 129.986,100.481 
									"/>
				<path fill="#FFFFFF" d="M157.508,89.901v-3.633c0-4.717-1.467-8.095-5.227-9.561c3.123-1.466,4.525-4.397,4.525-8.987v-1.593
					c0-6.884-3.123-10.262-10.391-10.262h-10.58v44.615h11.027C153.875,100.481,157.508,96.785,157.508,89.901z M142.848,62.24
					h3.379c2.484,0,3.568,1.401,3.568,4.589v2.485c0,3.569-1.594,4.717-4.207,4.717h-2.74V62.24z M150.496,89.71
					c0,3.314-1.275,4.397-3.633,4.397h-4.016V80.404h3.123c3.188,0,4.525,1.275,4.525,5.418V89.71z"/>
				<rect x="163.875" y="55.866" fill="#FFFFFF" width="7.012" height="44.615"/>
				<polygon fill="#FFFFFF" points="196.381,94.107 184.844,94.107 184.844,55.866 177.832,55.866 177.832,100.481 196.381,100.481 
									"/>
				<path fill="#FFFFFF" d="M214.807,89.392V55.866h-7.012v34.035c0,3.441-1.783,4.271-4.016,4.271c-0.764,0-1.656,0-2.422-0.064
					v6.374c1.148,0.128,2.104,0.128,3.379,0.128C210.027,100.609,214.807,98.314,214.807,89.392z"/>
				<polygon fill="#FFFFFF" points="240.723,94.107 228.613,94.107 228.613,81.042 238.236,81.042 238.236,74.668 228.613,74.668 
					228.613,62.24 240.723,62.24 240.723,55.866 221.602,55.866 221.602,100.481 240.723,100.481 				"/>
				<polygon fill="#FFFFFF" points="260.564,62.24 267.895,62.24 267.895,55.866 246.225,55.866 246.225,62.24 253.553,62.24 
					253.553,100.481 260.564,100.481 				"/>
				<polygon fill="#FFFFFF" points="272.809,55.866 272.809,62.24 280.139,62.24 280.139,100.481 287.148,100.481 287.148,62.24 
					294.479,62.24 294.479,55.866 				"/>
				<polygon fill="#FFFFFF" points="7.329,159.794 14.34,159.794 14.34,121.553 21.67,121.553 21.67,115.179 0,115.179 0,121.553 
					7.329,121.553 				"/>
				<rect x="27.515" y="115.179" fill="#FFFFFF" width="7.011" height="44.615"/>
				<polygon fill="#FFFFFF" points="60.02,153.42 48.484,153.42 48.484,115.179 41.473,115.179 41.473,159.794 60.02,159.794 				
					"/>
				<polygon fill="#FFFFFF" points="84.418,153.42 72.883,153.42 72.883,115.179 65.871,115.179 65.871,159.794 84.418,159.794 				
					"/>
				<polygon fill="#FFFFFF" points="122.852,121.553 122.852,115.179 103.731,115.179 103.731,159.794 122.852,159.794 
					122.852,153.42 110.742,153.42 110.742,140.354 120.367,140.354 120.367,133.98 110.742,133.98 110.742,121.553 				"/>
				<path fill="#FFFFFF" d="M139.59,160.367c6.883,0,10.453-4.079,10.453-11.217v-33.972h-6.629v34.417
					c0,3.188-1.402,4.335-3.633,4.335s-3.633-1.147-3.633-4.335v-34.417h-7.012v33.972
					C129.137,156.288,132.707,160.367,139.59,160.367z"/>
				<path fill="#FFFFFF" d="M171.529,159.794h7.139c-0.701-1.657-0.766-3.251-0.766-5.418v-6.883c0-4.653-1.146-8.031-4.652-9.497
					c3.123-1.466,4.59-4.461,4.59-9.051v-3.505c0-6.884-3.123-10.262-10.391-10.262h-10.58v44.615h7.012v-18.165h2.422
					c3.188,0,4.59,1.53,4.59,5.673v7.011C170.893,157.945,171.146,158.646,171.529,159.794z M170.828,130.539
					c0,3.569-1.594,4.717-4.207,4.717h-2.74v-13.703h3.379c2.484,0,3.568,1.401,3.568,4.589V130.539z"/>
				<path fill="#FFFFFF" d="M194.832,160.304c6.883,0,10.645-4.079,10.645-11.218v-23.199c0-7.139-3.762-11.218-10.645-11.218
					s-10.645,4.079-10.645,11.218v23.199C184.188,156.225,187.949,160.304,194.832,160.304z M191.199,125.44
					c0-3.187,1.402-4.397,3.633-4.397s3.633,1.211,3.633,4.397v24.092c0,3.188-1.402,4.398-3.633,4.398s-3.633-1.211-3.633-4.398
					V125.44z"/>
				<path fill="#FFFFFF" d="M219.143,143.031h3.313c7.012,0,10.453-3.888,10.453-11.026v-5.8c0-7.139-3.441-11.026-10.453-11.026
					h-10.324v44.615h7.012V143.031z M219.143,121.553h3.313c2.232,0,3.443,1.02,3.443,4.206v6.692c0,3.187-1.211,4.207-3.443,4.207
					h-3.313V121.553z"/>
				<path fill="#FFFFFF" d="M243.504,151.699h8.604l1.211,8.095h7.074l-7.139-44.615h-10.262l-7.137,44.615h6.436L243.504,151.699z
					 M247.773,123.082l3.377,22.563h-6.756L247.773,123.082z"/>
			</g>
			<g>
				<rect x="1.083" y="173.616" fill="#FFFFFF" width="292.312" height="0.828"/>
				<rect x="1.083" y="41.788" fill="#FFFFFF" width="292.312" height="0.828"/>
			</g>
		</g>
	</g>
	<g>
		<path fill="#FFFFFF" d="M26.127,13.261c-1.422,0.001-2.068,0.729-2.132,2.432l4.132-0.004
			C28.086,14.089,27.527,13.261,26.127,13.261z"/>
		<path fill="#FFFFFF" d="M33.584,0H3.252C2.4,0,1.684,0.689,1.684,1.549v30.302c0,0.828,0.717,1.55,1.568,1.55h30.332
			c0.785,0,1.5-0.722,1.5-1.55V1.549C35.084,0.689,34.369,0,33.584,0z M15.164,13.799c-0.017,0.071-1.736,7.293-2.377,9.672
			c-0.354,1.311-1.435,2.092-2.893,2.092c-1.453,0-1.938-0.095-2.322-0.269c-0.226-0.098-0.449-0.229-0.449-0.664v-0.381
			c0-0.392,0.213-0.615,0.584-0.615c0.138,0,0.288,0.018,0.477,0.039c0.313,0.037,0.741,0.087,1.394,0.087
			c0.791,0,1.251-0.194,1.548-1.117c0.091-0.283,0.237-1.028,0.306-1.391h-0.647c-1.094,0-1.685-0.466-1.974-1.554l-1.617-5.768
			c-0.155-0.589-0.228-0.984-0.228-1.251c0-0.438,0.252-0.679,0.711-0.679h0.571c0.524,0,0.635,0.416,0.751,0.856l0.017,0.063
			l1.521,5.77c0.182,0.725,0.397,0.854,0.911,0.854h0.339l1.523-6.618c0.156-0.692,0.366-0.925,0.833-0.925h0.538
			c0.412,0,0.679,0.267,0.679,0.679C15.359,13.035,15.164,13.799,15.164,13.799z M19.672,20.414c0,0.561-0.127,0.933-0.743,0.933
			h-0.444c-0.65,0-0.774-0.327-0.774-0.933V9.08h-0.335c-0.838,0-0.963-0.426-0.963-0.679V7.798c0-0.647,0.654-0.647,0.9-0.647
			h1.362c0.92,0,0.997,0.728,0.997,1.473V20.414z M28.49,17.289h-4.533c0.069,1.981,0.37,2.414,2.77,2.414
			c0.963,0,1.459-0.098,1.787-0.163c0.168-0.033,0.302-0.059,0.433-0.059c0.37,0,0.583,0.224,0.583,0.615v0.349
			c0,0.437-0.223,0.567-0.453,0.666c-0.365,0.166-1.303,0.362-2.729,0.362c-3.198,0-4.388-1.267-4.388-4.673
			c0-3.495,1.275-5.054,4.134-5.054c3.412,0,3.838,2.502,3.838,4.354C29.931,16.813,29.582,17.289,28.49,17.289z"/>
	</g>
</g>
</svg>
